<svg width="12" height="13" viewBox="0 0 12 13" fill="none" xmlns="http://www.w3.org/2000/svg">
<g opacity="0.6">
<path d="M11.731 10.3625L9.87777 8.50912C9.50864 8.14148 8.89736 8.15265 8.51538 8.53477L7.58172 9.46822C7.52274 9.43571 7.46168 9.40175 7.39749 9.36573C6.80789 9.03904 6.00093 8.59128 5.15177 7.7415C4.3001 6.88993 3.85192 6.08173 3.52424 5.49175C3.48966 5.42925 3.45653 5.36899 3.42381 5.31176L4.05043 4.68607L4.3585 4.37762C4.74107 3.99494 4.75162 3.38384 4.38336 3.01513L2.53014 1.1615C2.16188 0.793304 1.55033 0.804474 1.16776 1.18715L0.645456 1.71245L0.659729 1.72662C0.484595 1.95008 0.338248 2.20782 0.229341 2.48576C0.128949 2.75032 0.0664456 3.00278 0.0378657 3.25576C-0.206839 5.28442 0.720198 7.13846 3.23606 9.65435C6.71374 13.1318 9.5163 12.8691 9.6372 12.8563C9.90052 12.8248 10.1529 12.7619 10.4093 12.6623C10.6849 12.5546 10.9424 12.4085 11.1658 12.2338L11.1772 12.2439L11.7063 11.7258C12.0881 11.3432 12.0991 10.7318 11.731 10.3625Z" fill="white"/>
</g>
</svg>
